<svg width="24" height="24" viewBox="0 0 24 24" fill="none" xmlns="http://www.w3.org/2000/svg">
<path fill-rule="evenodd" clip-rule="evenodd" d="M11.9992 0.249939C5.373 0.249939 0 5.64375 0 12.2981C0 17.6201 3.438 22.1357 8.20725 23.7291C8.80725 23.8416 9.02625 23.4677 9.02625 23.1486L9.00975 21.0998C5.6715 21.8278 4.96725 19.4846 4.96725 19.4846C4.422 18.0934 3.63525 17.7227 3.63525 17.7227C2.5455 16.9749 3.71775 16.9901 3.71775 16.9901C4.9215 17.0753 5.55525 18.2318 5.55525 18.2318C6.62625 20.073 8.364 19.5413 9.048 19.2324C9.15675 18.4539 9.46725 17.9229 9.81 17.6199C7.14525 17.3158 4.344 16.2827 4.344 11.6663C4.344 10.3508 4.81125 9.27563 5.57925 8.433C5.4555 8.12813 5.04375 6.90375 5.69625 5.24494C5.69625 5.24494 6.70425 4.92113 8.99625 6.47981C9.954 6.21244 10.98 6.07931 12.0007 6.07388C13.02 6.07913 14.0467 6.21263 15.0052 6.47981C17.2957 4.92113 18.3015 5.24494 18.3015 5.24494C18.9563 6.90375 18.5445 8.12813 18.4208 8.433C19.1903 9.27563 19.6545 10.3508 19.6545 11.6663C19.6545 16.2938 16.8487 17.3128 14.1757 17.6109C14.6062 17.9829 14.9902 18.7178 14.9902 19.8422L14.9752 23.1471C14.9752 23.4696 15.1912 23.8446 15.8002 23.7261C20.565 22.1314 24 17.6188 24 12.2981C24 5.64375 18.627 0.249939 11.9992 0.249939Z" fill="#3E75C3"/>
</svg>
