<svg width="24" height="24" viewBox="0 0 24 24" fill="none" xmlns="http://www.w3.org/2000/svg">
<path fill-rule="evenodd" clip-rule="evenodd" d="M0.605625 8.08744H5.28337V22.9093H0.605625V8.08744V8.08744ZM2.82525 6.23362H2.7915C1.09781 6.23362 0 5.10056 0 3.66431C0 2.19994 1.13025 1.09087 2.8575 1.09087C4.58325 1.09087 5.6445 2.19712 5.67825 3.66019C5.67825 5.09644 4.58325 6.23362 2.82506 6.23362H2.82525ZM24 22.9091H18.6937V15.2391C18.6937 13.2315 17.8641 11.8609 16.0395 11.8609C14.6439 11.8609 13.8679 12.7858 13.5064 13.677C13.371 13.9969 13.3939 14.4426 13.3939 14.8882V22.9089H8.13937V8.08706H13.3942V10.4132C13.7047 9.39619 15.3836 7.94456 18.0636 7.94456C21.3879 7.94456 23.9998 10.0764 23.9998 14.6674V22.9089L24 22.9091Z" fill="#007EBB"/>
</svg>
