<svg width="24" height="24" viewBox="0 0 24 24" fill="none" xmlns="http://www.w3.org/2000/svg">
<g clip-path="url(#clip0_409_9)">
<path fill-rule="evenodd" clip-rule="evenodd" d="M24 4.36762C23.1038 4.77565 22.1502 5.04359 21.1727 5.16206C22.1897 4.53806 22.9702 3.54844 23.3379 2.36981C22.3854 2.94769 21.3335 3.36806 20.2091 3.59344C19.3132 2.61281 18.0326 2.00006 16.6155 2.00006C13.898 2.00006 11.6936 4.26075 11.6936 7.04887C11.6936 7.4445 11.7358 7.82887 11.8204 8.19881C7.72817 7.9875 4.10061 5.97975 1.66874 2.92162C1.24499 3.66975 1.00236 4.53787 1.00236 5.46262C1.00236 7.2135 1.87161 8.75887 3.19292 9.66487C2.38724 9.6405 1.62636 9.41062 0.961675 9.03487V9.09675C0.961675 11.5436 2.65911 13.5849 4.91305 14.0473C4.50055 14.1658 4.06499 14.2251 3.61555 14.2251C3.30437 14.2254 2.9939 14.1954 2.68855 14.1354C3.31536 16.1406 5.13261 17.601 7.28793 17.6398C5.60305 18.9949 3.47886 19.8022 1.1728 19.8022C0.7753 19.8022 0.382487 19.7792 -0.0020752 19.7329C2.17724 21.1629 4.76643 21.9994 7.54574 21.9994C16.6039 21.9994 21.5552 14.307 21.5552 7.63462C21.5552 7.41644 21.5509 7.19827 21.5424 6.98025C22.505 6.26812 23.3405 5.37975 23.9983 4.36706" fill="#00AAEC"/>
</g>
<defs>
<clipPath id="clip0_409_9">
<rect width="24" height="24" fill="white"/>
</clipPath>
</defs>
</svg>
